<svg id="visual" viewBox="0 0 900 600" width="900" height="600" xmlns="http://www.w3.org/2000/svg" xmlns:xlink="http://www.w3.org/1999/xlink" version="1.1"><rect x="0" y="0" width="900" height="600" fill="#0E2940"></rect><defs><linearGradient id="grad1_0" x1="33.3%" y1="100%" x2="100%" y2="0%"><stop offset="20%" stop-color="#0e2940" stop-opacity="1"></stop><stop offset="80%" stop-color="#0e2940" stop-opacity="1"></stop></linearGradient></defs><defs><linearGradient id="grad2_0" x1="0%" y1="100%" x2="66.7%" y2="0%"><stop offset="20%" stop-color="#0e2940" stop-opacity="1"></stop><stop offset="80%" stop-color="#0e2940" stop-opacity="1"></stop></linearGradient></defs><g transform="translate(900, 600)"><path d="M-432.7 0C-429.8 -58.6 -427 -117.1 -399.7 -165.6C-372.5 -214 -320.9 -252.4 -271.5 -271.5C-222.2 -290.6 -175 -290.5 -130.1 -314.1C-85.2 -337.8 -42.6 -385.2 0 -432.7L0 0Z" fill="#FEA608"></path></g><g transform="translate(0, 0)"><path d="M432.7 0C427 55.6 421.4 111.1 399.7 165.6C378.1 220 340.3 273.3 289.9 289.9C239.5 306.5 176.3 286.3 125.9 304C75.5 321.6 37.7 377.1 0 432.7L0 0Z" fill="#FEA608"></path></g></svg>